<?xml version="1.0" encoding="utf-8"?>
<!-- Generator: Adobe Illustrator 26.0.2, SVG Export Plug-In . SVG Version: 6.00 Build 0)  -->
<svg version="1.1" id="Слой_1" xmlns="http://www.w3.org/2000/svg" xmlns:xlink="http://www.w3.org/1999/xlink" x="0px" y="0px"
	 viewBox="0 0 294.9 80.3" style="enable-background:new 0 0 294.9 80.3;" xml:space="preserve">
<style type="text/css">
	.st0{fill:#FFFFFF;}
</style>
<g>
	<path class="st0" d="M84.8,19c1-1.8,1.6-3.9,1.6-6.3c0-2.4-0.5-4.5-1.6-6.3c-1-1.8-2.6-3.1-4.8-4.1c-2.1-1-4.8-1.5-8-1.5H50.4v33.3
		h10.3v-9.6H72c3.2,0,5.8-0.5,8-1.5C82.1,22.1,83.7,20.7,84.8,19z M75.6,14.7c-0.3,0.6-0.8,1-1.5,1.3c-0.7,0.3-1.5,0.5-2.5,0.5H60.1
		V8.9h11.5c1,0,1.8,0.2,2.5,0.5c0.7,0.3,1.2,0.8,1.5,1.3c0.3,0.6,0.5,1.2,0.5,2C76.1,13.5,75.9,14.1,75.6,14.7z"/>
	<path class="st0" d="M99.9,25.2c-0.9,0.5-2.1,0.7-3.7,0.7c-1.3,0-2.7-0.2-4.2-0.5v8.5c1,0.3,1.9,0.5,2.8,0.7c0.9,0.1,2,0.2,3.2,0.2
		c2.3,0,4.4-0.4,6.2-1.1c1.8-0.7,3.4-1.8,4.8-3.2c1.4-1.4,2.7-3.2,3.8-5.3l13.7-24.3h-11.7l-5,9.9c-0.7,1.5-1.1,2.9-1.5,4
		c-0.3,1.1-0.5,2.3-0.5,3.4v0.6h-0.9v-0.6c0-1.1-0.2-2.3-0.5-3.4c-0.3-1.2-0.9-2.5-1.7-4l-5.7-9.9H87.2l14.3,22.9
		C101.1,24.4,100.6,24.9,99.9,25.2z"/>
	<polygon class="st0" points="140,9.3 160.7,9.3 160.7,0.9 129.8,0.9 129.8,34.1 140,34.1 	"/>
	<path class="st0" d="M167.6,34.1l2-4.8h16.5l2,4.8H199l0,0h12.2l3.5-8.6c0.3-0.7,0.6-1.2,1.1-1.6c0.4-0.4,1-0.7,1.6-0.8
		c0.6-0.2,1.4-0.2,2.3-0.2h6.4v11.2h10.3V0.9h-21.9c-3.1,0-5.7,0.4-7.8,1.3c-2.1,0.9-3.6,2.1-4.6,3.7c-1,1.6-1.5,3.5-1.5,5.6
		c0,1.9,0.4,3.6,1.3,5.1c0.9,1.5,2,2.7,3.4,3.6c1.3,0.8,2.6,1.2,4.1,1.3v0.9c-1.1,0-2.1,0.2-3,0.5c-0.9,0.3-1.8,0.9-2.5,1.7
		c-0.7,0.8-1.5,1.9-2.1,3.3L199,34L183.9,0.9h-12.1l-15.1,33.3H167.6z M211.4,10.7c0.4-0.6,0.9-1.1,1.7-1.4c0.7-0.3,1.6-0.5,2.7-0.5
		h10.9v8.1h-10.9c-1.6,0-2.8-0.4-3.7-1.1c-0.8-0.7-1.3-1.7-1.3-2.9C210.9,12,211,11.3,211.4,10.7z M177,10.6
		c0.3-1.2,0.4-2.3,0.4-3.5V7h0.9v0.2c0,1.1,0.1,2.3,0.4,3.5c0.3,1.2,0.8,2.7,1.5,4.5l2.6,6.3h-9.9l2.6-6.3
		C176.3,13.3,176.8,11.8,177,10.6z"/>
	<path class="st0" d="M22,51.1c-0.7,1.5-1.1,2.9-1.5,4c-0.3,1.1-0.5,2.3-0.5,3.4v0.6h-0.9v-0.6c0-1.1-0.2-2.3-0.5-3.4
		c-0.3-1.2-0.9-2.5-1.7-4l-5.7-9.9H-0.7L13.6,64c-0.4,0.7-1,1.1-1.6,1.5c-0.9,0.5-2.1,0.7-3.7,0.7c-1.3,0-2.7-0.2-4.2-0.5v8.5
		c1,0.3,1.9,0.5,2.8,0.7c0.9,0.1,2,0.2,3.2,0.2c2.3,0,4.4-0.4,6.2-1.1c1.8-0.7,3.4-1.8,4.8-3.2c1.4-1.4,2.7-3.2,3.8-5.3l13.7-24.3
		H26.9L22,51.1z"/>
	<polygon class="st0" points="78,41.2 65.2,41.2 52.1,56.1 52.1,41.2 41.9,41.2 41.9,74.4 52.1,74.4 52.1,58.6 65.7,74.4 78.9,74.4 
		63.1,57.1 	"/>
	<path class="st0" d="M118.4,53c0-2.4-0.5-4.5-1.6-6.3c-1-1.8-2.6-3.1-4.8-4.1s-4.8-1.5-8-1.5H82.4v33.3h10.3v-9.6h11.4
		c3.2,0,5.8-0.5,8-1.5c2.1-1,3.7-2.3,4.8-4.1S118.4,55.4,118.4,53z M107.6,55c-0.3,0.6-0.8,1-1.5,1.3c-0.7,0.3-1.5,0.5-2.5,0.5H92.1
		v-7.5h11.5c1,0,1.8,0.2,2.5,0.5c0.7,0.3,1.2,0.8,1.5,1.3c0.3,0.6,0.5,1.2,0.5,2C108.1,53.7,107.9,54.4,107.6,55z"/>
	<path class="st0" d="M131.7,41.2l-15.1,33.3h10.9l2-4.8H146l2,4.8h10.9l-15.1-33.3H131.7z M132.8,61.7l2.6-6.3
		c0.7-1.8,1.2-3.3,1.5-4.5c0.3-1.2,0.4-2.3,0.4-3.5v-0.2h0.9v0.2c0,1.1,0.1,2.3,0.4,3.5c0.3,1.2,0.8,2.7,1.5,4.5l2.6,6.3H132.8z"/>
	<path class="st0" d="M171.9,68.3H171c0.5-1.4,0.8-2.8,1.1-4.3c0.3-1.5,0.4-3.3,0.4-5.3V41.2h-9.9v33.3h16l14.1-27.1h0.9
		c-0.5,1.4-0.8,2.8-1.1,4.3c-0.3,1.5-0.4,3.3-0.4,5.3v17.5h9.8V41.2H186L171.9,68.3z"/>
	<polygon class="st0" points="237.3,53 219,53 219,41.2 208.8,41.2 208.8,74.4 219,74.4 219,61.4 237.3,61.4 237.3,74.4 247.6,74.4 
		247.6,41.2 237.3,41.2 	"/>
	<path class="st0" d="M282.7,74.4h10.9l-15.1-33.3h-12.1l-15.1,33.3h10.9l2-4.8h16.5L282.7,74.4z M267.5,61.7l2.6-6.3
		c0.7-1.8,1.2-3.3,1.5-4.5c0.3-1.2,0.4-2.3,0.4-3.5v-0.2h0.9v0.2c0,1.1,0.1,2.3,0.4,3.5c0.3,1.2,0.8,2.7,1.5,4.5l2.6,6.3H267.5z"/>
	<path class="st0" d="M45.9,26h-5V1H8.7L6.3,21.6c-0.2,1.5-0.6,2.6-1.3,3.3C4.3,25.6,3.3,26,2,26H0v8.3h45.9V26z M31,26H13.8
		c0.4-0.2,0.8-0.5,1-0.8c0.8-1,1.4-2.5,1.6-4.6l1.2-11.3H31V26z"/>
</g>
</svg>
